TITLE ""
FILE "DISC2Track01.mp3" MP3
  TRACK 01 AUDIO
    TITLE "DISC2Track01_01"
    INDEX 01 00:00:00
  TRACK 02 AUDIO
    TITLE "DISC2Track01_02"
    INDEX 01 00:01:45
  TRACK 03 AUDIO
    TITLE "DISC2Track01_03"
    INDEX 01 00:01:61
  TRACK 04 AUDIO
    TITLE "DISC2Track01_04"
    INDEX 01 00:05:51
  TRACK 05 AUDIO
    TITLE "DISC2Track01_05"
    INDEX 01 00:09:29
  TRACK 06 AUDIO
    TITLE "DISC2Track01_06"
    INDEX 01 00:12:47
  TRACK 07 AUDIO
    TITLE "DISC2Track01_07"
    INDEX 01 00:12:57
  TRACK 08 AUDIO
    TITLE "DISC2Track01_08"
    INDEX 01 00:16:03
  TRACK 09 AUDIO
    TITLE "DISC2Track01_09"
    INDEX 01 00:19:06
  TRACK 10 AUDIO
    TITLE "DISC2Track01_10"
    INDEX 01 00:21:65
  TRACK 11 AUDIO
    TITLE "DISC2Track01_11"
    INDEX 01 00:22:06
  TRACK 12 AUDIO
    TITLE "DISC2Track01_12"
    INDEX 01 00:23:49
  TRACK 13 AUDIO
    TITLE "DISC2Track01_13"
    INDEX 01 00:25:49
  TRACK 14 AUDIO
    TITLE "DISC2Track01_14"
    INDEX 01 00:27:27
  TRACK 15 AUDIO
    TITLE "DISC2Track01_15"
    INDEX 01 00:27:39
  TRACK 16 AUDIO
    TITLE "DISC2Track01_16"
    INDEX 01 00:30:49
  TRACK 17 AUDIO
    TITLE "DISC2Track01_17"
    INDEX 01 00:33:39
  TRACK 18 AUDIO
    TITLE "DISC2Track01_18"
    INDEX 01 00:36:08
  TRACK 19 AUDIO
    TITLE "DISC2Track01_19"
    INDEX 01 00:36:24
  TRACK 20 AUDIO
    TITLE "DISC2Track01_20"
    INDEX 01 00:40:53
  TRACK 21 AUDIO
    TITLE "DISC2Track01_21"
    INDEX 01 00:44:43
  TRACK 22 AUDIO
    TITLE "DISC2Track01_22"
    INDEX 01 00:47:69
  TRACK 23 AUDIO
    TITLE "DISC2Track01_23"
    INDEX 01 00:48:09
  TRACK 24 AUDIO
    TITLE "DISC2Track01_24"
    INDEX 01 00:51:27
  TRACK 25 AUDIO
    TITLE "DISC2Track01_25"
    INDEX 01 00:54:18
  TRACK 26 AUDIO
    TITLE "DISC2Track01_26"
    INDEX 01 00:56:56
  TRACK 27 AUDIO
    TITLE "DISC2Track01_27"
    INDEX 01 00:56:72
  TRACK 28 AUDIO
    TITLE "DISC2Track01_28"
    INDEX 01 01:00:44
  TRACK 29 AUDIO
    TITLE "DISC2Track01_29"
    INDEX 01 01:03:72
  TRACK 30 AUDIO
    TITLE "DISC2Track01_30"
    INDEX 01 01:07:07
  TRACK 31 AUDIO
    TITLE "DISC2Track01_31"
    INDEX 01 01:07:20
  TRACK 32 AUDIO
    TITLE "DISC2Track01_32"
    INDEX 01 01:09:10
  TRACK 33 AUDIO
    TITLE "DISC2Track01_33"
    INDEX 01 01:11:36
  TRACK 34 AUDIO
    TITLE "DISC2Track01_34"
    INDEX 01 01:13:29
  TRACK 35 AUDIO
    TITLE "DISC2Track01_35"
    INDEX 01 01:13:41
  TRACK 36 AUDIO
    TITLE "DISC2Track01_36"
    INDEX 01 01:16:15
  TRACK 37 AUDIO
    TITLE "DISC2Track01_37"
    INDEX 01 01:19:51
  TRACK 38 AUDIO
    TITLE "DISC2Track01_38"
    INDEX 01 01:22:55
  TRACK 39 AUDIO
    TITLE "DISC2Track01_39"
    INDEX 01 01:22:73
  TRACK 40 AUDIO
    TITLE "DISC2Track01_40"
    INDEX 01 01:27:60
  TRACK 41 AUDIO
    TITLE "DISC2Track01_41"
    INDEX 01 01:31:56
  TRACK 42 AUDIO
    TITLE "DISC2Track01_42"
    INDEX 01 01:35:19
  TRACK 43 AUDIO
    TITLE "DISC2Track01_43"
    INDEX 01 01:35:34
  TRACK 44 AUDIO
    TITLE "DISC2Track01_44"
    INDEX 01 01:38:17
  TRACK 45 AUDIO
    TITLE "DISC2Track01_45"
    INDEX 01 01:41:10
  TRACK 46 AUDIO
    TITLE "DISC2Track01_46"
    INDEX 01 01:43:40
  TRACK 47 AUDIO
    TITLE "DISC2Track01_47"
    INDEX 01 01:43:52
  TRACK 48 AUDIO
    TITLE "DISC2Track01_48"
    INDEX 01 01:47:49
  TRACK 49 AUDIO
    TITLE "DISC2Track01_49"
    INDEX 01 01:50:54
  TRACK 50 AUDIO
    TITLE "DISC2Track01_50"
    INDEX 01 01:53:22
